<svg xmlns="http://www.w3.org/2000/svg" width="16" height="16" viewBox="0 0 16 16">
  <g id="ic_g_circle_add_bl" transform="translate(-481.55 -418.722)">
    <rect id="長方形_146023" data-name="長方形 146023" width="16" height="16" transform="translate(481.55 418.722)" fill="none"/>
    <g id="グループ_160815" data-name="グループ 160815">
      <path id="パス_37872" data-name="パス 37872" d="M489.55,418.722a8,8,0,1,0,8,8A8,8,0,0,0,489.55,418.722Zm0,14.7a6.7,6.7,0,1,1,6.7-6.7A6.708,6.708,0,0,1,489.55,433.422Z" fill="#1f31a5"/>
      <path id="パス_37873" data-name="パス 37873" d="M493.379,426.072H490.2v-3.179a.65.65,0,0,0-1.3,0v3.179h-3.178a.65.65,0,1,0,0,1.3H488.9v3.179a.65.65,0,0,0,1.3,0v-3.179h3.178a.65.65,0,0,0,0-1.3Z" fill="#1f31a5"/>
    </g>
  </g>
</svg>
