<svg xmlns="http://www.w3.org/2000/svg" width="24" height="24.002" viewBox="0 0 24 24.002">
  <g id="ic_g_zaimu_bl_24px" transform="translate(0 0.002)">
    <rect id="長方形_163210" data-name="長方形 163210" width="24" height="24" fill="none"/>
    <rect id="長方形_163209" data-name="長方形 163209" width="19.254" height="22.7" transform="translate(2.373 0.62)" fill="#dbe6fe"/>
    <path id="合体_22" data-name="合体 22" d="M21875.652,23169a.65.65,0,0,1-.65-.65v-22.7a.65.65,0,0,1,.65-.65h19.252a.651.651,0,0,1,.652.65v22.7a.651.651,0,0,1-.652.65Zm.646-1.3h17.955v-21.4H21876.3Zm11.99-2.75a1.006,1.006,0,1,1,1.006,1.006A1.006,1.006,0,0,1,21888.289,23164.947Zm-4.02,0a1.006,1.006,0,1,1,1.006,1.006A1,1,0,0,1,21884.27,23164.947Zm-4.018,0a1.006,1.006,0,1,1,1.006,1.006A1,1,0,0,1,21880.252,23164.947Zm8.037-4.3a1.006,1.006,0,1,1,1.006,1.006A1.009,1.009,0,0,1,21888.289,23160.65Zm-4.02,0a1.006,1.006,0,1,1,1.006,1.006A1.007,1.007,0,0,1,21884.27,23160.65Zm-4.018,0a1.006,1.006,0,1,1,1.006,1.006A1.006,1.006,0,0,1,21880.252,23160.65Zm8.037-4.291a1.006,1.006,0,1,1,1.006,1.006A1.006,1.006,0,0,1,21888.289,23156.359Zm-4.02,0a1.006,1.006,0,1,1,1.006,1.006A1,1,0,0,1,21884.27,23156.359Zm-4.018,0a1.006,1.006,0,1,1,1.006,1.006A1,1,0,0,1,21880.252,23156.359Zm-1.506-2.668a.651.651,0,0,1-.65-.652v-4.6a.645.645,0,0,1,.65-.645h13.061a.647.647,0,0,1,.656.645v4.6a.652.652,0,0,1-.656.652Zm.646-1.3h11.768v-3.3h-11.768Z" transform="translate(-21873.277 -23145)" fill="#1f31a5"/>
  </g>
</svg>
