<svg id="ic_g_warkflow_bl_24px" xmlns="http://www.w3.org/2000/svg" width="24" height="24" viewBox="0 0 24 24">
  <rect id="長方形_163216" data-name="長方形 163216" width="24" height="24" fill="none"/>
  <path id="合体_27" data-name="合体 27" d="M21485.979,22838.842a3.861,3.861,0,1,1,3.859,3.859A3.861,3.861,0,0,1,21485.979,22838.842ZM21471,22842.7v-7.723h7.721v7.723Zm0-18.838a3.86,3.86,0,1,1,3.863,3.857A3.866,3.866,0,0,1,21471,22823.863Zm15.393-.006,3.445-3.445,3.451,3.445-3.451,3.451Z" transform="translate(-21470.35 -22819.35)" fill="#dbe6fe"/>
  <path id="パス_41808" data-name="パス 41808" d="M20.139,15.045V8.227l3.716-3.716L19.489.143,15.772,3.861H8.955a4.5,4.5,0,1,0-5.1,5.094v6.024H0V24H9.021V14.979H5.16V8.955a4.493,4.493,0,0,0,3.8-3.8h6.817l3.067,3.067v6.818a4.511,4.511,0,1,0,1.3,0M7.72,16.279V22.7H1.3V16.279ZM4.51,7.721a3.211,3.211,0,1,1,3.21-3.21,3.214,3.214,0,0,1-3.21,3.21M19.489,1.982l2.528,2.529L19.489,7.039,16.96,4.511Zm0,20.718a3.2,3.2,0,0,1-.454-6.375h.908a3.2,3.2,0,0,1-.454,6.375" fill="#1f31a5"/>
</svg>
