<svg id="ic_g_jinji_kyuyo_bl_24px" xmlns="http://www.w3.org/2000/svg" width="24.002" height="24" viewBox="0 0 24.002 24">
  <rect id="長方形_163213" data-name="長方形 163213" width="24" height="24" fill="none"/>
  <path id="パス_41803" data-name="パス 41803" d="M21.9,19.089H16.837c-.008-.453-.242-.9-.707-.9a3.637,3.637,0,0,1-2.742-1.325,3.512,3.512,0,0,0-3.027-1.476H0v4.834H2.984a12.993,12.993,0,0,0,9.057,3.121c1.065,0,7.163-.567,9.859-.993s.993-3.263,0-3.263" fill="#dbe6fe"/>
  <path id="合体_26" data-name="合体 26" d="M22275.748,22845.873H22273v-1.3h2.982a.645.645,0,0,1,.418.154,12.364,12.364,0,0,0,8.436,2.971l.207-.006c.963,0,6.979-.545,9.754-.98.9-.145.9-.533.9-.684a1.637,1.637,0,0,0-.809-1.289h-4.52a1.512,1.512,0,0,1-.172.373,1.281,1.281,0,0,1-1.066.572h-4.352a.65.65,0,0,1,0-1.3h4.352a.56.56,0,0,0,.059-.27.418.418,0,0,0-.076-.281,4.255,4.255,0,0,1-3.238-1.566,2.863,2.863,0,0,0-2.518-1.227H22273v-1.3h10.357a4.188,4.188,0,0,1,3.543,1.725,2.985,2.985,0,0,0,2.23,1.078,1.311,1.311,0,0,1,1.238.895h4.531c.939,0,2,1.223,2.094,2.42.033.42-.018,1.824-2,2.133-2.725.432-8.82,1-9.955,1h-.2c-.092,0-.207.006-.326.006A13.544,13.544,0,0,1,22275.748,22845.873Zm8.6-8.809v-2.225h-2.834a.65.65,0,1,1,0-1.3h2.834v-2.15h-2.834a.648.648,0,1,1,0-1.3h2.559l-2.947-4.059a.651.651,0,0,1,1.055-.764l2.814,3.883,2.822-3.883a.649.649,0,1,1,1.049.764l-2.941,4.059h2.553a.648.648,0,1,1,0,1.3h-2.828v2.15h2.828a.65.65,0,1,1,0,1.3h-2.828v2.225a.65.65,0,0,1-1.3,0Z" transform="translate(-22272.998 -22824.998)" fill="#1f31a5"/>
</svg>
