<svg xmlns="http://www.w3.org/2000/svg" width="16" height="16" viewBox="0 0 16 16">
  <g id="ic_g_sidebar_home_bl" transform="translate(-11 -151.782)">
    <rect id="長方形_145651" data-name="長方形 145651" width="16" height="16" transform="translate(11 151.782)" fill="none"/>
    <path id="パス_37494" data-name="パス 37494" d="M26.814,159.316,19,152.432l-7.814,6.884h2.669v7.179a.684.684,0,0,0,.637.637h2.549v-4.459H20.96v4.459h2.548a.684.684,0,0,0,.637-.637v-7.179Z" fill="#c2cfed"/>
    <g id="グループ_160321" data-name="グループ 160321">
      <path id="パス_37495" data-name="パス 37495" d="M26.78,158.419l-7.35-6.475a.652.652,0,0,0-.86,0l-7.35,6.475a.65.65,0,0,0,.86.975L19,153.3l6.92,6.1a.65.65,0,0,0,.86-.975Z" fill="#1f31a5"/>
      <path id="パス_37496" data-name="パス 37496" d="M24.145,159.033a.65.65,0,0,0-.651.65l.014,6.8h-1.9v-3.809a.651.651,0,0,0-.651-.65H17.04a.651.651,0,0,0-.651.65v3.813l-1.883.009v-6.812a.651.651,0,0,0-1.3,0l0,6.856a1.35,1.35,0,0,0,1.285,1.243H17.04a.65.65,0,0,0,.65-.65v-3.809h2.62v3.809a.65.65,0,0,0,.65.65h2.593a1.351,1.351,0,0,0,1.242-1.286v-6.812A.65.65,0,0,0,24.145,159.033Z" fill="#1f31a5"/>
    </g>
  </g>
</svg>
