<svg xmlns="http://www.w3.org/2000/svg" width="32.004" height="32.002" viewBox="0 0 32.004 32.002">
  <g id="ic_g_warkflow_bl_32px" transform="translate(0.002)">
    <rect id="長方形_163216" data-name="長方形 163216" width="32" height="32" transform="translate(-0.002)" fill="none"/>
    <path id="合体_27" data-name="合体 27" d="M19.971,25.125a5.148,5.148,0,1,1,5.146,5.146A5.148,5.148,0,0,1,19.971,25.125ZM0,30.271v-10.3H10.293v10.3ZM0,5.152A5.147,5.147,0,1,1,5.15,10.3,5.156,5.156,0,0,1,0,5.152Zm20.525-.008L25.117.551l4.6,4.594-4.6,4.6Z" transform="translate(0.867 0.865)" fill="#dbe6fe"/>
    <path id="パス_41808" data-name="パス 41808" d="M26.854,20.061V10.97l4.955-4.955L25.987.191,21.031,5.148h-9.09a6,6,0,1,0-6.794,6.792v8.032H0V32H12.029V19.973H6.88V11.941a5.991,5.991,0,0,0,5.06-5.06h9.09l4.09,4.09v9.091a6.015,6.015,0,1,0,1.733,0m-16.56,1.645v8.562H1.733V21.707ZM6.014,10.3a4.281,4.281,0,1,1,4.28-4.28,4.285,4.285,0,0,1-4.28,4.28M25.987,2.643l3.371,3.372L25.987,9.386,22.615,6.015Zm0,27.626a4.271,4.271,0,0,1-.605-8.5h1.211a4.271,4.271,0,0,1-.605,8.5" fill="#1f31a5"/>
  </g>
</svg>
