<svg id="ic_g_search_result_non_bl_96px" xmlns="http://www.w3.org/2000/svg" width="96" height="96" viewBox="0 0 96 96">
  <rect id="長方形_162531" data-name="長方形 162531" width="96" height="96" fill="none"/>
  <path id="パス_41758" data-name="パス 41758" d="M48,0h0A48,48,0,1,1,0,48,48,48,0,0,1,48,0" fill="#f0f0f0"/>
  <path id="パス_41759" data-name="パス 41759" d="M68.421,46.722a21.692,21.692,0,1,0-21.692,21.72,21.706,21.706,0,0,0,21.692-21.72" fill="#fff"/>
  <path id="合体_137" data-name="合体 137" d="M8782.216,6224.707l-8.24-8.253a22.684,22.684,0,1,1,7.409-16.732v0a22.7,22.7,0,0,1-5.994,15.311l8.245,8.253a1,1,0,0,1,0,1.417,1,1,0,0,1-1.418,0ZM8738,6199.721A20.69,20.69,0,1,0,8758.691,6179,20.728,20.728,0,0,0,8738,6199.721Zm19.506,8.97a1.184,1.184,0,1,1,1.184,1.184A1.184,1.184,0,0,1,8757.508,6208.691Zm.183-4.557a5.972,5.972,0,0,1,3.278-5.679c1.169-.767,1.94-1.274,1.94-2.868a3.728,3.728,0,0,0-4.015-4.015c-.454,0-4.418.113-4.418,4.015a1,1,0,0,1-2,0c0-4.136,3.329-6.019,6.422-6.019a5.707,5.707,0,0,1,6.019,6.019c0,2.674-1.576,3.71-2.842,4.543-1.329.873-2.377,1.561-2.377,4a1,1,0,1,1-2,0Z" transform="translate(-8711.964 -6153)" fill="#1f31a5" stroke="rgba(0,0,0,0)" stroke-width="1"/>
</svg>
