<svg xmlns="http://www.w3.org/2000/svg" width="24" height="24.002" viewBox="0 0 24 24.002">
  <g id="ic_g_shisan_bl_24px" transform="translate(0 0.002)">
    <rect id="長方形_163212" data-name="長方形 163212" width="24" height="24" fill="none"/>
    <path id="合体_24" data-name="合体 24" d="M21477.113,23167.7c-2.059,0-4.115-1.721-4.115-6.885a9.486,9.486,0,0,1,2.645-6.482h13.217a9.491,9.491,0,0,1,2.65,6.482c0,5.164-2.053,6.885-4.109,6.885Zm1.023-17.07s-2.047-4.547-2.256-4.994c-.174-.373.309-.361.926-.273s2.156.633,2.773.813c.721-.359,2.674-1.174,2.674-1.174s1.953.814,2.674,1.174c.617-.18,2.158-.721,2.773-.812s1.105-.1.926.273c-.205.447-2.256,4.994-2.256,4.994Z" transform="translate(-21470.256 -23144.35)" fill="#dbe6fe"/>
    <path id="合体_25" data-name="合体 25" d="M21477.762,23169c-1.117,0-4.762-.547-4.762-7.535a8.612,8.612,0,0,1,2.844-6.3.649.649,0,1,1,.895.941,7.363,7.363,0,0,0-2.436,5.361c0,3.959,1.262,6.232,3.459,6.232h10.287c2.2,0,3.465-2.273,3.465-6.232a7.37,7.37,0,0,0-2.447-5.361.65.65,0,0,1-.029-.918.657.657,0,0,1,.924-.023,8.626,8.626,0,0,1,2.85,6.3c0,6.988-3.646,7.535-4.762,7.535Zm4.494-4.7v-1.92h-2.3a.651.651,0,0,1,0-1.3h2.3v-2.256h-2.3a.648.648,0,1,1,0-1.3h1.943l-2.332-2.918a.65.65,0,1,1,1.018-.809l2.326,2.908,2.32-2.908a.65.65,0,1,1,1.018.809l-2.332,2.918h1.941a.648.648,0,1,1,0,1.3h-2.3v2.256h2.3a.651.651,0,1,1,0,1.3h-2.3v1.92a.651.651,0,0,1-1.3,0Zm-4.041-13.369c-.086-.156-2.059-3.912-2.273-4.371a.837.837,0,0,1,.059-.885c.332-.441.953-.395,1.553-.3a17.342,17.342,0,0,1,2.145.605c.176.059.338.111.479.156.842-.4,2.406-1.053,2.477-1.08a.619.619,0,0,1,.5,0c.076.027,1.645.68,2.482,1.08.141-.045.3-.1.477-.156a16.427,16.427,0,0,1,2.146-.605c.6-.092,1.221-.139,1.553.3a.845.845,0,0,1,.063.885c-.215.459-2.191,4.215-2.273,4.371a.649.649,0,0,1-.58.35.6.6,0,0,1-.3-.076.646.646,0,0,1-.273-.877c.424-.814,1.389-2.646,1.906-3.652-.418.082-1.238.344-1.848.541-.3.1-.559.186-.744.238a.649.649,0,0,1-.479-.047c-.539-.268-1.83-.818-2.383-1.047-.541.229-1.838.779-2.379,1.047a.639.639,0,0,1-.477.047c-.186-.059-.447-.145-.75-.238-.605-.2-1.424-.459-1.844-.541.523,1.006,1.482,2.838,1.908,3.652a.646.646,0,0,1-.273.877.62.62,0,0,1-.3.076A.642.642,0,0,1,21478.215,23150.928Z" transform="translate(-21470.906 -23145)" fill="#1f31a5"/>
  </g>
</svg>
