<svg xmlns="http://www.w3.org/2000/svg" width="32" height="32.002" viewBox="0 0 32 32.002">
  <g id="ic_g_zaimu_bl_32px" transform="translate(0 0.002)">
    <rect id="長方形_163210" data-name="長方形 163210" width="32" height="32" transform="translate(0 -0.002)" fill="none"/>
    <rect id="長方形_163209" data-name="長方形 163209" width="25.672" height="30.267" transform="translate(3.164 0.827)" fill="#dbe6fe"/>
    <path id="合体_22" data-name="合体 22" d="M.867,32A.866.866,0,0,1,0,31.135V.867A.868.868,0,0,1,.867,0h25.67a.868.868,0,0,1,.869.867V31.135a.867.867,0,0,1-.869.867Zm.861-1.736H25.67V1.736H1.729ZM17.717,26.6a1.341,1.341,0,1,1,1.34,1.34A1.34,1.34,0,0,1,17.717,26.6Zm-5.359,0a1.341,1.341,0,1,1,1.34,1.34A1.336,1.336,0,0,1,12.357,26.6ZM7,26.6a1.341,1.341,0,1,1,1.342,1.34A1.335,1.335,0,0,1,7,26.6Zm10.717-5.73a1.341,1.341,0,1,1,1.34,1.342A1.345,1.345,0,0,1,17.717,20.869Zm-5.359,0a1.341,1.341,0,1,1,1.34,1.342A1.341,1.341,0,0,1,12.357,20.869ZM7,20.869a1.341,1.341,0,1,1,1.342,1.342A1.34,1.34,0,0,1,7,20.869Zm10.717-5.721a1.341,1.341,0,1,1,1.34,1.342A1.341,1.341,0,0,1,17.717,15.148Zm-5.359,0A1.341,1.341,0,1,1,13.7,16.49,1.337,1.337,0,0,1,12.357,15.148ZM7,15.148A1.341,1.341,0,1,1,8.342,16.49,1.337,1.337,0,0,1,7,15.148ZM4.992,11.592a.869.869,0,0,1-.867-.871V4.588a.861.861,0,0,1,.867-.859H22.406a.863.863,0,0,1,.875.859v6.133a.87.87,0,0,1-.875.871Zm.861-1.738H21.545V5.459H5.854Z" transform="translate(2.299 -0.002)" fill="#1f31a5"/>
  </g>
</svg>
