<svg xmlns="http://www.w3.org/2000/svg" width="32.002" height="32.002" viewBox="0 0 32.002 32.002">
  <g id="ic_g_common_bl_32px" transform="translate(0.002)">
    <rect id="長方形_163211" data-name="長方形 163211" width="32" height="32" transform="translate(-0.002)" fill="none"/>
    <path id="パス_41795" data-name="パス 41795" d="M29.861,12.945l-3.266-.15a.77.77,0,0,1-.675-.475l-.673-1.62a.769.769,0,0,1,.142-.813l2.2-2.418a.772.772,0,0,0-.025-1.063L24.852,3.689a.771.771,0,0,0-1.065-.024l-2.415,2.2a.774.774,0,0,1-.815.142l-1.62-.673a.769.769,0,0,1-.474-.675L18.313,1.4a.772.772,0,0,0-.769-.735H13.7a.771.771,0,0,0-.769.735l-.15,3.266a.769.769,0,0,1-.474.675l-1.62.673a.773.773,0,0,1-.815-.142l-2.417-2.2a.77.77,0,0,0-1.065.024L3.677,6.406a.77.77,0,0,0-.025,1.063l2.2,2.418A.768.768,0,0,1,6,10.7l-.671,1.62a.772.772,0,0,1-.677.475l-3.265.15a.77.77,0,0,0-.735.769v3.843a.771.771,0,0,0,.735.769l3.265.15a.769.769,0,0,1,.677.474L6,20.569a.77.77,0,0,1-.141.814L3.652,23.8a.773.773,0,0,0,.024,1.065l2.719,2.716a.771.771,0,0,0,1.063.024l2.415-2.2a.771.771,0,0,1,.815-.142l1.62.671a.771.771,0,0,1,.474.677l.15,3.265a.77.77,0,0,0,.769.735h3.843a.771.771,0,0,0,.769-.735l.15-3.265a.771.771,0,0,1,.474-.677l1.62-.671a.771.771,0,0,1,.815.142l2.415,2.2a.773.773,0,0,0,1.065-.024l2.716-2.716a.774.774,0,0,0,.025-1.065l-2.2-2.417a.768.768,0,0,1-.142-.814l.673-1.62a.767.767,0,0,1,.675-.474l3.266-.15a.77.77,0,0,0,.733-.769V13.714a.769.769,0,0,0-.733-.769" transform="translate(0.208 0.212)" fill="#dbe6fe"/>
    <path id="合体_23" data-name="合体 23" d="M14.064,32a1.644,1.644,0,0,1-1.645-1.574l-.152-3.293-1.584-.607-2.35,2.211a1.634,1.634,0,0,1-2.27-.055L3.32,25.939a1.64,1.64,0,0,1-.055-2.271l2.227-2.441L4.8,19.684,1.574,19.59A1.652,1.652,0,0,1,0,17.939V14.063A1.64,1.64,0,0,1,1.574,12.42l3.3-.154.6-1.582L3.266,8.334A1.633,1.633,0,0,1,3.32,6.063L6.064,3.318a1.634,1.634,0,0,1,2.27-.055L10.777,5.49l1.541-.7.1-3.219A1.642,1.642,0,0,1,14.064,0h3.885a1.651,1.651,0,0,1,1.643,1.572l.148,3.3,1.58.6,2.357-2.211a1.632,1.632,0,0,1,2.262.055l2.754,2.744a1.652,1.652,0,0,1,.055,2.271l-2.232,2.443.7,1.541,3.219.1h.008A1.639,1.639,0,0,1,32,14.063v3.877a1.652,1.652,0,0,1-1.572,1.65l-3.295.148-.605,1.582,2.211,2.348a1.644,1.644,0,0,1-.047,2.271l-2.746,2.752a1.642,1.642,0,0,1-2.27.047l-2.443-2.227-1.549.7-.094,3.219A1.652,1.652,0,0,1,17.949,32Zm-2.715-7.07,1.637.674A1.641,1.641,0,0,1,14,27.049l.154,3.3,3.8-.086.063-3.215a1.643,1.643,0,0,1,1.016-1.443l1.635-.674a1.628,1.628,0,0,1,1.736.3l2.439,2.225,2.623-2.744L25.234,22.4a1.636,1.636,0,0,1-.3-1.738l.676-1.643a1.643,1.643,0,0,1,1.441-1.008l3.3-.156-.078-3.705-3.225-.156a1.649,1.649,0,0,1-1.441-1.008l-.676-1.635a1.659,1.659,0,0,1,.3-1.744l2.227-2.441L24.717,4.543,22.4,6.77a1.652,1.652,0,0,1-1.744.309L19.027,6.4a1.641,1.641,0,0,1-1.016-1.443l-.156-3.3-3.791.086L14,4.953A1.635,1.635,0,0,1,12.98,6.4l-1.631.682A1.656,1.656,0,0,1,9.605,6.77L7.166,4.543,4.543,7.287,6.77,9.605A1.67,1.67,0,0,1,7.08,11.35L6.4,12.984a1.641,1.641,0,0,1-1.443,1.008l-3.3.156.086,3.791,3.217.07A1.648,1.648,0,0,1,6.4,19.018L7.08,20.66A1.66,1.66,0,0,1,6.77,22.4L4.543,24.838l2.746,2.621,2.324-2.225a1.612,1.612,0,0,1,1.736-.3ZM10.357,16A5.645,5.645,0,1,1,16,21.645,5.646,5.646,0,0,1,10.357,16ZM12.1,16A3.911,3.911,0,1,0,16,12.094,3.917,3.917,0,0,0,12.1,16Z" transform="translate(-0.002)" fill="#1f31a5"/>
  </g>
</svg>
