<svg xmlns="http://www.w3.org/2000/svg" width="32" height="32.002" viewBox="0 0 32 32.002">
  <g id="ic_g_shisan_bl_32px" transform="translate(0.004 0.002)">
    <rect id="長方形_163212" data-name="長方形 163212" width="32" height="32" transform="translate(-0.004 -0.002)" fill="none"/>
    <path id="合体_24" data-name="合体 24" d="M5.488,30.266C2.744,30.266,0,27.971,0,21.086a12.649,12.649,0,0,1,3.525-8.643H21.148a12.656,12.656,0,0,1,3.533,8.643c0,6.885-2.736,9.18-5.479,9.18ZM6.852,7.506S4.123,1.445,3.846.848c-.232-.5.41-.48,1.234-.363s2.873.844,3.7,1.082C9.738,1.088,12.342,0,12.342,0s2.6,1.086,3.564,1.564c.822-.238,2.877-.961,3.7-1.082s1.475-.133,1.234.363c-.273.6-3.008,6.658-3.008,6.658Z" transform="translate(3.656 0.868)" fill="#dbe6fe"/>
    <path id="合体_25" data-name="合体 25" d="M6.352,32C4.861,32,0,31.271,0,21.955a11.481,11.481,0,0,1,3.791-8.4.866.866,0,1,1,1.193,1.254,9.824,9.824,0,0,0-3.248,7.148c0,5.277,1.684,8.309,4.613,8.309H20.066c2.936,0,4.619-3.031,4.619-8.309a9.833,9.833,0,0,0-3.264-7.148.866.866,0,1,1,1.193-1.254,11.5,11.5,0,0,1,3.8,8.4C26.414,31.271,21.553,32,20.066,32Zm5.99-6.271V23.172H9.271a.869.869,0,0,1,0-1.738h3.07V18.428H9.271a.865.865,0,1,1,0-1.73h2.592L8.754,12.807a.867.867,0,1,1,1.357-1.078l3.1,3.879L16.3,11.729a.872.872,0,0,1,1.225-.137.859.859,0,0,1,.133,1.215L14.553,16.7h2.588a.865.865,0,1,1,0,1.73H14.08v3.006h3.061a.869.869,0,1,1,0,1.738H14.08V25.73a.869.869,0,0,1-1.738,0ZM6.955,7.906C6.84,7.7,4.211,2.691,3.924,2.08A1.114,1.114,0,0,1,4,.9C4.445.311,5.273.373,6.072.5A23.4,23.4,0,0,1,8.932,1.3c.234.078.449.148.637.209,1.123-.533,3.209-1.4,3.3-1.439a.824.824,0,0,1,.666,0c.1.035,2.193.906,3.311,1.439.188-.061.4-.131.635-.209A22.113,22.113,0,0,1,20.344.5c.8-.123,1.629-.186,2.07.4A1.125,1.125,0,0,1,22.5,2.08c-.287.611-2.922,5.619-3.031,5.826a.866.866,0,0,1-.773.467.8.8,0,0,1-.4-.1.862.862,0,0,1-.363-1.17c.564-1.086,1.852-3.527,2.541-4.869-.557.109-1.65.459-2.463.721-.4.133-.746.248-.992.318a.867.867,0,0,1-.639-.062c-.719-.357-2.439-1.09-3.176-1.395-.723.3-2.451,1.037-3.172,1.395a.855.855,0,0,1-.637.063c-.246-.078-.6-.193-1-.318-.807-.262-1.9-.611-2.457-.721.7,1.342,1.977,3.783,2.543,4.869a.862.862,0,0,1-.363,1.17.832.832,0,0,1-.4.1A.855.855,0,0,1,6.955,7.906Z" transform="translate(2.791 -0.002)" fill="#1f31a5"/>
  </g>
</svg>
