<svg xmlns="http://www.w3.org/2000/svg" width="24.002" height="24.002" viewBox="0 0 24.002 24.002">
  <g id="ic_g_common_bl_24px" transform="translate(0.002 0.002)">
    <rect id="長方形_163211" data-name="長方形 163211" width="24" height="24" fill="none"/>
    <path id="パス_41795" data-name="パス 41795" d="M22.794,9.973l-2.476-.114a.584.584,0,0,1-.512-.36L19.3,8.271a.583.583,0,0,1,.108-.616l1.671-1.833a.585.585,0,0,0-.019-.806L19,2.957a.585.585,0,0,0-.807-.018l-1.831,1.67a.587.587,0,0,1-.618.108l-1.228-.51a.583.583,0,0,1-.359-.512L14.04,1.219a.585.585,0,0,0-.583-.557H10.544a.585.585,0,0,0-.583.557L9.847,3.695a.583.583,0,0,1-.359.512l-1.228.51a.586.586,0,0,1-.618-.108L5.81,2.939A.584.584,0,0,0,5,2.957L2.945,5.016a.583.583,0,0,0-.019.806L4.6,7.655a.582.582,0,0,1,.107.616L4.2,9.5a.585.585,0,0,1-.513.36l-2.475.114a.584.584,0,0,0-.557.583v2.913a.585.585,0,0,0,.557.583l2.475.114a.583.583,0,0,1,.513.359L4.7,15.753a.584.584,0,0,1-.107.617L2.926,18.2a.586.586,0,0,0,.018.807l2.061,2.059a.584.584,0,0,0,.806.018l1.831-1.67a.584.584,0,0,1,.618-.108l1.228.509a.584.584,0,0,1,.359.513l.114,2.475a.584.584,0,0,0,.583.557h2.913a.585.585,0,0,0,.583-.557l.114-2.475a.584.584,0,0,1,.359-.513l1.228-.509a.584.584,0,0,1,.618.108l1.831,1.67A.586.586,0,0,0,19,21.068l2.059-2.059a.587.587,0,0,0,.019-.807L19.4,16.37a.582.582,0,0,1-.108-.617l.51-1.228a.581.581,0,0,1,.512-.359l2.476-.114a.584.584,0,0,0,.556-.583V10.556a.583.583,0,0,0-.556-.583" fill="#dbe6fe"/>
    <path id="合体_23" data-name="合体 23" d="M22287.545,23169a1.231,1.231,0,0,1-1.232-1.18l-.115-2.471-1.187-.455-1.762,1.658a1.226,1.226,0,0,1-1.7-.041l-2.059-2.059a1.231,1.231,0,0,1-.041-1.7l1.67-1.832-.518-1.156-2.42-.07a1.24,1.24,0,0,1-1.18-1.238v-2.908a1.231,1.231,0,0,1,1.18-1.232l2.477-.115.449-1.187-1.658-1.762a1.226,1.226,0,0,1,.041-1.7l2.059-2.059a1.226,1.226,0,0,1,1.7-.041l1.832,1.67,1.156-.523.076-2.414a1.231,1.231,0,0,1,1.232-1.18h2.914a1.239,1.239,0,0,1,1.232,1.18l.111,2.477,1.186.449,1.768-1.658a1.224,1.224,0,0,1,1.7.041l2.064,2.059a1.237,1.237,0,0,1,.041,1.7l-1.674,1.832.521,1.156,2.414.076h.006a1.23,1.23,0,0,1,1.174,1.232v2.908a1.24,1.24,0,0,1-1.18,1.238l-2.471.111-.455,1.186,1.658,1.762a1.231,1.231,0,0,1-.035,1.7l-2.059,2.064a1.231,1.231,0,0,1-1.7.035l-1.832-1.67-1.162.523-.07,2.414a1.239,1.239,0,0,1-1.232,1.18Zm-2.035-5.3,1.227.506a1.228,1.228,0,0,1,.758,1.082l.115,2.477,2.85-.064.047-2.412a1.231,1.231,0,0,1,.762-1.082l1.227-.506a1.224,1.224,0,0,1,1.3.227l1.83,1.67,1.967-2.059-1.67-1.738a1.222,1.222,0,0,1-.227-1.3l.506-1.232a1.232,1.232,0,0,1,1.082-.756l2.477-.117-.059-2.779-2.418-.117a1.239,1.239,0,0,1-1.082-.756l-.506-1.227a1.242,1.242,0,0,1,.227-1.309l1.67-1.83-2.059-1.967-1.738,1.67a1.24,1.24,0,0,1-1.309.232l-1.221-.512a1.231,1.231,0,0,1-.762-1.082l-.117-2.477-2.844.064-.051,2.412a1.225,1.225,0,0,1-.762,1.082l-1.223.512a1.242,1.242,0,0,1-1.309-.232l-1.83-1.67-1.967,2.059,1.67,1.738a1.256,1.256,0,0,1,.232,1.309l-.512,1.227a1.229,1.229,0,0,1-1.082.756l-2.477.117.064,2.844,2.412.053a1.232,1.232,0,0,1,1.082.756l.512,1.232a1.246,1.246,0,0,1-.232,1.3l-1.67,1.83,2.059,1.967,1.744-1.67a1.214,1.214,0,0,1,1.3-.227Zm-.744-6.7a4.233,4.233,0,1,1,4.234,4.232A4.235,4.235,0,0,1,22284.766,23157Zm1.3,0a2.934,2.934,0,1,0,2.932-2.932A2.939,2.939,0,0,0,22286.068,23157Z" transform="translate(-22277 -23145)" fill="#1f31a5"/>
  </g>
</svg>
