<svg id="ic_g_search_result_bl_32px" xmlns="http://www.w3.org/2000/svg" width="32" height="32.002" viewBox="0 0 32 32.002">
  <rect id="長方形_163231" data-name="長方形 163231" width="32" height="32" fill="none"/>
  <path id="パス_41828" data-name="パス 41828" d="M26.385,13.527A12.859,12.859,0,1,0,13.527,26.385,12.859,12.859,0,0,0,26.385,13.527" transform="translate(0.223 0.223)" fill="#dbe6fe"/>
  <path id="合体_138" data-name="合体 138" d="M22278.02,20916.744l-7.717-7.711a13.707,13.707,0,1,1,4.691-10.287v.006a13.712,13.712,0,0,1-3.461,9.051l7.711,7.717a.859.859,0,0,1,0,1.225.856.856,0,0,1-1.225,0Zm-28.785-18a12.011,12.011,0,1,0,12.012-12.012A12.024,12.024,0,0,0,22249.234,20898.746Zm11.145,6.445v-7.945a.866.866,0,0,1,1.732,0v7.945a.866.866,0,1,1-1.732,0Zm-.2-11.824a1.067,1.067,0,1,1,1.068,1.066A1.071,1.071,0,0,1,22260.178,20893.367Z" transform="translate(-22247.5 -20885)" fill="#1f31a5"/>
</svg>
