<svg id="ic_g_menu_bl_32px" xmlns="http://www.w3.org/2000/svg" xmlns:xlink="http://www.w3.org/1999/xlink" width="32" height="32" viewBox="0 0 32 32">
  <defs>
    <clipPath id="clip-path">
      <rect id="長方形_163224" data-name="長方形 163224" width="32" height="32" fill="none"/>
    </clipPath>
  </defs>
  <g id="グループ_189114" data-name="グループ 189114" clip-path="url(#clip-path)">
    <path id="パス_41818" data-name="パス 41818" d="M22.6,16.571V1.823A1.177,1.177,0,0,0,21.431.65H1.823A1.177,1.177,0,0,0,.65,1.823V22.091a1.176,1.176,0,0,0,1.173,1.172H16.488A7.8,7.8,0,0,1,22.6,16.571" fill="#dbe6fe"/>
    <path id="パス_41819" data-name="パス 41819" d="M29.84,24.2a5.627,5.627,0,1,0-5.627,5.635A5.631,5.631,0,0,0,29.84,24.2" fill="#fff"/>
    <path id="パス_41820" data-name="パス 41820" d="M17.306,6.026H8.787a.65.65,0,0,0,0,1.3h8.519a.65.65,0,0,0,0-1.3" fill="#1f31a5"/>
    <rect id="長方形_163222" data-name="長方形 163222" width="1.726" height="1.726" rx="0.829" transform="translate(4.846 5.814)" fill="#1f31a5"/>
    <path id="パス_41821" data-name="パス 41821" d="M17.306,11.307H8.787a.65.65,0,0,0,0,1.3h8.519a.65.65,0,0,0,0-1.3" fill="#1f31a5"/>
    <rect id="長方形_163223" data-name="長方形 163223" width="1.726" height="1.726" rx="0.829" transform="translate(4.846 11.094)" fill="#1f31a5"/>
    <path id="パス_41822" data-name="パス 41822" d="M17.306,16.586H8.787a.65.65,0,1,0,0,1.3h8.519a.65.65,0,0,0,0-1.3" fill="#1f31a5"/>
    <path id="パス_41823" data-name="パス 41823" d="M5.742,16.373H5.674a.831.831,0,0,0-.829.829v.068a.831.831,0,0,0,.829.829h.068a.831.831,0,0,0,.829-.829V17.2a.831.831,0,0,0-.829-.829" fill="#1f31a5"/>
    <path id="パス_41824" data-name="パス 41824" d="M1.3,22.09V1.822A.523.523,0,0,1,1.823,1.3H21.432a.523.523,0,0,1,.522.523V16.738a7.781,7.781,0,0,1,1.3-.271V1.822A1.824,1.824,0,0,0,21.432,0H1.823A1.825,1.825,0,0,0,0,1.822V22.09a1.826,1.826,0,0,0,1.823,1.823H16.441a7.827,7.827,0,0,1,.148-1.3H1.823A.53.53,0,0,1,1.3,22.09" fill="#1f31a5"/>
    <path id="パス_41825" data-name="パス 41825" d="M31.81,30.891l-2.735-2.738A6.267,6.267,0,0,0,30.49,24.2v0a6.317,6.317,0,1,0-2.335,4.872L30.89,31.81a.65.65,0,0,0,.92-.919m-7.6-1.706A4.985,4.985,0,1,1,29.19,24.2a4.987,4.987,0,0,1-4.977,4.985" fill="#1f31a5"/>
    <path id="パス_41826" data-name="パス 41826" d="M24.262,21.136a1.711,1.711,0,0,0-1.828,1.73.5.5,0,0,0,1,0,.74.74,0,0,1,.828-.73.662.662,0,0,1,.73.73c0,.245-.069.3-.36.492a1.716,1.716,0,0,0-.919,1.6.5.5,0,0,0,1,0c0-.462.156-.565.468-.77a1.472,1.472,0,0,0,.811-1.327,1.659,1.659,0,0,0-1.73-1.73" fill="#1f31a5"/>
    <path id="パス_41827" data-name="パス 41827" d="M24.213,26.439a.666.666,0,1,0,.666.666.666.666,0,0,0-.666-.666" fill="#1f31a5"/>
  </g>
</svg>
