<svg xmlns="http://www.w3.org/2000/svg" xmlns:xlink="http://www.w3.org/1999/xlink" width="75" height="27" viewBox="0 0 75 27">
  <defs>
    <clipPath id="clip-path">
      <rect id="長方形_163176" data-name="長方形 163176" width="72.426" height="26.989" fill="none"/>
    </clipPath>
  </defs>
  <g id="mjs_logo" transform="translate(-864 -918)">
    <g id="グループ_189045" data-name="グループ 189045" transform="translate(865 918)">
      <g id="グループ_189044" data-name="グループ 189044" clip-path="url(#clip-path)">
        <path id="パス_41501" data-name="パス 41501" d="M443.288,208.659v.022h-.055c-.011-.033.044-.055.055-.022" transform="translate(-396.6 -186.691)" fill="#4c5142"/>
        <path id="パス_41502" data-name="パス 41502" d="M292.1,48.946V45.137H285.44l-2.268,9.286-2.07-9.286h-6.666v3.808h1v9.923h-1.053V62.62h6.249V58.868h-1.015V53.54l2.093,9.047h3.015l2.166-9.287v5.569h-1.034V62.62H292.1V58.868H291.07V48.946Z" transform="translate(-245.513 -40.388)" fill="#595757"/>
        <path id="パス_41503" data-name="パス 41503" d="M665.373,125.331l0,0,0,0Z" transform="translate(-595.369 -112.145)" fill="#595757"/>
        <path id="パス_41504" data-name="パス 41504" d="M582.285,49.9a13.984,13.984,0,0,0-2.47-1.132c-.321-.1-1.755-.607-1.755-.607h0a1.637,1.637,0,0,1-.979-1.487,1.69,1.69,0,0,1,3.378,0,1.709,1.709,0,0,1-.014.21H584.5v-5.38H581.01v.505a5.394,5.394,0,0,0-6.36,8.713l.006,0a12.212,12.212,0,0,0,3.432,1.621,5.887,5.887,0,0,1,1.357.728,1.566,1.566,0,0,1,.566,1.205,1.536,1.536,0,0,1-1.567,1.566c-1.973,0-1.851-2.254-1.851-2.254h-4.066V59h3.536v-.325a7.8,7.8,0,0,0,3.508.708,5.129,5.129,0,0,0,2.712-9.483" transform="translate(-512.276 -36.71)" fill="#595757"/>
        <path id="パス_41505" data-name="パス 41505" d="M452.77,45.207v3.8h1.012v8.5a1.4,1.4,0,1,1-2.8,0v-3.66h-4.565V57.19a5.973,5.973,0,0,0,11.936,0V49.008h.973v-3.8Z" transform="translate(-399.446 -40.451)" fill="#595757"/>
        <path id="パス_41506" data-name="パス 41506" d="M0,13.494A13.494,13.494,0,1,1,13.495,26.989,13.494,13.494,0,0,1,0,13.494" fill="#0080cb"/>
        <path id="パス_41507" data-name="パス 41507" d="M99.44,17.714a3.032,3.032,0,1,1,3.032,3.032,3.032,3.032,0,0,1-3.032-3.032" transform="translate(-88.978 -13.137)" fill="#fff"/>
        <path id="パス_41508" data-name="パス 41508" d="M32.645,25.079,28.057,35.9,23.47,25.079a11.785,11.785,0,0,0,3.7,22.6V44.862a8.969,8.969,0,0,1-5.006-15.685l5.9,13.912,5.9-13.912a8.969,8.969,0,0,1-5.006,15.685v2.822a11.784,11.784,0,0,0,3.7-22.6" transform="translate(-14.563 -22.44)" fill="#fff"/>
      </g>
    </g>
    <rect id="長方形_163177" data-name="長方形 163177" width="75" height="27" transform="translate(864 918)" fill="none"/>
  </g>
</svg>
