<svg xmlns="http://www.w3.org/2000/svg" width="32" height="32" viewBox="0 0 32 32">
  <g id="ic_g_jinji_kyuyo_bl_32px" transform="translate(0.002 -0.002)">
    <rect id="長方形_163213" data-name="長方形 163213" width="32" height="32" transform="translate(-0.002 0.002)" fill="none"/>
    <path id="パス_41803" data-name="パス 41803" d="M29.2,20.323H22.452c-.011-.6-.323-1.2-.943-1.2a4.85,4.85,0,0,1-3.656-1.767,4.683,4.683,0,0,0-4.036-1.968H0v6.446H3.979A17.327,17.327,0,0,0,16.057,26c1.42,0,9.552-.756,13.147-1.324s1.324-4.351,0-4.351" transform="translate(0 5.133)" fill="#dbe6fe"/>
    <path id="合体_26" data-name="合体 26" d="M3.664,27.832H0V26.1H3.977a.856.856,0,0,1,.557.207,16.494,16.494,0,0,0,11.248,3.961l.275-.008c1.285,0,9.3-.727,13.006-1.309,1.2-.191,1.2-.711,1.2-.91a2.18,2.18,0,0,0-1.078-1.719H23.158a1.948,1.948,0,0,1-.229.5,1.708,1.708,0,0,1-1.422.764h-5.8a.867.867,0,0,1,0-1.734h5.8a.749.749,0,0,0,.078-.359.559.559,0,0,0-.1-.375,5.679,5.679,0,0,1-4.318-2.088,3.815,3.815,0,0,0-3.355-1.637H0V19.652H13.811a5.581,5.581,0,0,1,4.723,2.3,3.983,3.983,0,0,0,2.975,1.439,1.746,1.746,0,0,1,1.65,1.191H29.2c1.252,0,2.66,1.631,2.791,3.227.045.561-.023,2.434-2.662,2.844-3.633.576-11.76,1.34-13.273,1.34H15.8c-.123,0-.275.008-.436.008A18.051,18.051,0,0,1,3.664,27.832ZM15.133,16.088V13.121H11.354a.867.867,0,1,1,0-1.734h3.779V8.52H11.354a.865.865,0,1,1,0-1.73h3.412l-3.93-5.412a.864.864,0,0,1,.2-1.207.859.859,0,0,1,1.209.189l3.752,5.178L19.758.359A.857.857,0,0,1,20.967.17a.863.863,0,0,1,.189,1.207L17.234,6.789h3.4a.865.865,0,1,1,0,1.73H16.867v2.867h3.771a.867.867,0,1,1,0,1.734H16.867v2.967a.867.867,0,0,1-1.734,0Z" transform="translate(-0.002 0.002)" fill="#1f31a5"/>
  </g>
</svg>
