<svg xmlns="http://www.w3.org/2000/svg" width="32.002" height="32.002" viewBox="0 0 32.002 32.002">
  <g id="ic_g_purpose_bl_32px" transform="translate(0.002 0.002)">
    <rect id="長方形_163221" data-name="長方形 163221" width="32" height="32" fill="none"/>
    <path id="パス_41809" data-name="パス 41809" d="M29.84,24.2a5.627,5.627,0,1,0-5.627,5.635A5.631,5.631,0,0,0,29.84,24.2" fill="#fff"/>
    <path id="合体_142" data-name="合体 142" d="M21952,20558.879c0-.566.938-1.062,2.32-1.328l4.525-.006c1.412.26,2.365.762,2.365,1.334,0,.85-2.057,1.533-4.6,1.533S21952,20559.729,21952,20558.879Zm4.586-6.08v-6.8h8.732l-3.406,3.4,3.406,3.4Z" transform="translate(-21951.35 -20545.352)" fill="#dbe6fe"/>
    <path id="合体_143" data-name="合体 143" d="M21982.891,20577.811l-2.736-2.736a6.274,6.274,0,1,1,2.338-4.877v.006a6.269,6.269,0,0,1-1.418,3.951l2.736,2.736a.649.649,0,0,1-.463,1.107A.64.64,0,0,1,21982.891,20577.811Zm-11.652-7.613a4.977,4.977,0,1,0,4.977-4.982A4.983,4.983,0,0,0,21971.238,20570.2Zm4.309,2.908a.665.665,0,1,1,.668.668A.666.666,0,0,1,21975.547,20573.105Zm.166-2.141a1.705,1.705,0,0,1,.92-1.605c.293-.193.359-.248.359-.492a.662.662,0,0,0-.729-.732.742.742,0,0,0-.828.732.5.5,0,0,1-1,0,1.713,1.713,0,0,1,1.832-1.732,1.655,1.655,0,0,1,1.727,1.732,1.456,1.456,0,0,1-.811,1.324c-.309.205-.469.309-.469.773a.5.5,0,0,1-1,0Zm-10.941-3.432a3.093,3.093,0,0,1,0-6.186h6.443a1.8,1.8,0,0,0,0-3.592h-6.5a.648.648,0,0,1,0-1.3h6.5a3.093,3.093,0,0,1,0,6.186h-6.443a1.793,1.793,0,0,0,0,3.586h3.178a.651.651,0,0,1,0,1.3Zm-12.773-8.006c0-.916,1.016-1.611,2.854-1.965a.652.652,0,0,1,.242,1.281c-1.334.252-1.76.639-1.8.723.117.188,1.469.844,3.961.844s3.846-.656,3.963-.922a4.39,4.39,0,0,0-1.838-.656.649.649,0,0,1-.523-.756.664.664,0,0,1,.76-.523c1.871.348,2.9,1.047,2.9,1.975,0,1.506-2.645,2.184-5.26,2.184S21952,20561.033,21952,20559.527Zm4.607-1.545v-11.332a.653.653,0,0,1,.65-.652h8.734a.661.661,0,0,1,.6.4.643.643,0,0,1-.143.705l-2.947,2.941,2.947,2.939a.647.647,0,0,1,.143.707.662.662,0,0,1-.6.4h-8.082v3.885a.651.651,0,0,1-1.3,0Zm1.3-5.182h6.51l-2.295-2.289a.661.661,0,0,1-.187-.463.649.649,0,0,1,.188-.459l2.295-2.289h-6.51Z" transform="translate(-21952 -20546)" fill="#1f31a5"/>
  </g>
</svg>
