<svg id="ic_g_search_result_side_bl" xmlns="http://www.w3.org/2000/svg" xmlns:xlink="http://www.w3.org/1999/xlink" width="32" height="32" viewBox="0 0 32 32">
  <defs>
    <clipPath id="clip-path">
      <rect id="長方形_163232" data-name="長方形 163232" width="32" height="32" fill="none"/>
    </clipPath>
  </defs>
  <g id="グループ_189137" data-name="グループ 189137" clip-path="url(#clip-path)">
    <path id="パス_41832" data-name="パス 41832" d="M14.808,26.113V17.106a2.3,2.3,0,0,1,2.3-2.3h1.285V12.375L29.45.65H.65L11.708,12.375V29.45Z" fill="#dbe6fe"/>
    <path id="パス_41833" data-name="パス 41833" d="M30,16H18a2,2,0,0,0-2,2V30a2,2,0,0,0,2,2H30a2,2,0,0,0,2-2V18a2,2,0,0,0-2-2" fill="#1f31a5"/>
    <path id="パス_41834" data-name="パス 41834" d="M12.358,12.375a.646.646,0,0,0-.178-.446L2.157,1.3H27.943L17.918,11.929a.646.646,0,0,0-.178.446v2.433h1.3V12.633L29.922,1.1A.65.65,0,0,0,29.45,0H.65A.65.65,0,0,0,.177,1.1l10.88,11.537V29.45a.65.65,0,0,0,.413.6.651.651,0,0,0,.714-.162l2.624-2.824V25.158L12.358,27.8Z" fill="#1f31a5"/>
    <path id="パス_41835" data-name="パス 41835" d="M21.883,28.451a.647.647,0,0,1-.447-.179l-3.258-3.095a.649.649,0,1,1,.894-.942l2.8,2.658,7.045-7.045a.65.65,0,0,1,.92.919l-7.493,7.494a.649.649,0,0,1-.46.19" fill="#fff"/>
  </g>
</svg>
