<svg xmlns="http://www.w3.org/2000/svg" width="80" height="80.002" viewBox="0 0 80 80.002">
  <g id="ic_g_purpose_bl_80px" transform="translate(0 0.002)">
    <rect id="長方形_163207" data-name="長方形 163207" width="80" height="80" fill="none"/>
    <path id="パス_41763" data-name="パス 41763" d="M77.069,60.554a16.482,16.482,0,1,0-16.482,16.5,16.493,16.493,0,0,0,16.482-16.5" fill="#fff"/>
    <path id="合体_139" data-name="合体 139" d="M22061,20722.24c0-1.658,3.156-3.061,7.568-3.6h7.92c4.418.543,7.574,1.945,7.574,3.6,0,2.113-5.162,3.832-11.535,3.832S22061,20724.354,22061,20722.24Zm11.473-15.227V20690h21.863l-8.527,8.506,8.527,8.506Z" transform="translate(-22059.998 -20689)" fill="#dbe6fe"/>
    <path id="合体_140" data-name="合体 140" d="M22139.293,20769.7l-6.117-6.117a17.671,17.671,0,1,1,1.416-1.418l6.113,6.125a1,1,0,0,1-.707,1.705A.971.971,0,0,1,22139.293,20769.7Zm-33.189-19.148a15.483,15.483,0,1,0,15.486-15.5A15.513,15.513,0,0,0,22106.1,20750.555Zm14.486,6.508a1,1,0,1,1,1,1A1,1,0,0,1,22120.59,20757.063Zm-.006-4.273a4.579,4.579,0,0,1,2.484-4.312c.9-.594,1.266-.871,1.266-1.828a2.415,2.415,0,0,0-2.605-2.6c-.479,0-2.889.121-2.889,2.6a1,1,0,0,1-2,0c0-3.162,2.539-4.6,4.891-4.6a4.362,4.362,0,0,1,4.605,4.6,3.853,3.853,0,0,1-2.166,3.5,2.66,2.66,0,0,0-1.584,2.645,1,1,0,0,1-2,0Zm-30.945-4.551a9.619,9.619,0,0,1,0-19.238h22.721a7.62,7.62,0,1,0,0-15.24H22101a1,1,0,0,1,0-2h11.357a9.622,9.622,0,1,1,0,19.244h-22.721a7.618,7.618,0,1,0,0,15.236h11.2a1,1,0,0,1,0,2Zm-28.639-25c0-2.229,3.16-3.945,8.451-4.59a1,1,0,0,1,.244,1.984c-4.734.572-6.7,1.979-6.7,2.605,0,.961,3.717,2.834,10.535,2.834s10.529-1.873,10.529-2.834c0-.627-1.961-2.033-6.7-2.605a1,1,0,0,1,.244-1.984c5.291.645,8.453,2.361,8.453,4.59,0,3.174-6.309,4.834-12.531,4.834S22061,20726.412,22061,20723.238Zm11.479-1.439V20691a1,1,0,0,1,1-1h21.859a1,1,0,0,1,.922.617.989.989,0,0,1-.217,1.09l-7.812,7.8,7.813,7.8a.987.987,0,0,1,.217,1.088,1,1,0,0,1-.922.617h-20.859v12.785a1,1,0,0,1-2,0Zm2-14.785h18.441l-6.812-6.8a1,1,0,0,1-.293-.711.988.988,0,0,1,.293-.705l6.813-6.8h-18.441Z" transform="translate(-22061 -20690)" fill="#1f31a5"/>
  </g>
</svg>
