<svg xmlns="http://www.w3.org/2000/svg" width="80.004" height="80.002" viewBox="0 0 80.004 80.002">
  <g id="ic_g_menu_bl_80px" transform="translate(0.002)">
    <rect id="長方形_163208" data-name="長方形 163208" width="80" height="80" fill="none"/>
    <path id="パス_41772" data-name="パス 41772" d="M57.761,40.615V3.988A3,3,0,0,0,54.774,1H3.988A3,3,0,0,0,1,3.988V54.774a3,3,0,0,0,2.987,2.987H40.669A20.126,20.126,0,0,1,57.761,40.615" fill="#dbe6fe"/>
    <path id="パス_41773" data-name="パス 41773" d="M77.069,60.554a16.482,16.482,0,1,0-16.482,16.5,16.493,16.493,0,0,0,16.482-16.5" fill="#fff"/>
    <path id="合体_141" data-name="合体 141" d="M22014.291,20763.7l-6.115-6.121a17.455,17.455,0,1,1,5.895-13.029v.006a17.476,17.476,0,0,1-4.48,11.613l6.117,6.123a1,1,0,1,1-1.416,1.408Zm-33.184-19.15a15.481,15.481,0,1,0,15.48-15.5A15.508,15.508,0,0,0,21981.107,20744.553Zm14.48,6.51a1,1,0,1,1,1,1A1,1,0,0,1,21995.588,20751.063Zm0-4.271a4.577,4.577,0,0,1,2.486-4.316c.9-.59,1.264-.867,1.264-1.828a2.414,2.414,0,0,0-2.6-2.6c-.486,0-2.895.123-2.895,2.6a1,1,0,1,1-2,0c0-3.16,2.537-4.6,4.891-4.6a4.363,4.363,0,0,1,4.6,4.6,3.862,3.862,0,0,1-2.166,3.5,2.668,2.668,0,0,0-1.586,2.646,1,1,0,0,1-2,0Zm-55.6-4.029a3.994,3.994,0,0,1-3.99-3.988v-50.789a3.991,3.991,0,0,1,3.99-3.984h50.787a3.986,3.986,0,0,1,3.984,3.984v36.5a20.027,20.027,0,0,0-2,.281v-36.781a1.986,1.986,0,0,0-1.984-1.984h-50.787a1.991,1.991,0,0,0-1.99,1.984v50.789a1.994,1.994,0,0,0,1.99,1.988h36.83c-.121.652-.215,1.32-.275,2Zm6.193-18.127a2,2,0,1,1,2,2A2.006,2.006,0,0,1,21946.182,20724.635Zm9.221,1a1,1,0,0,1,0-2h28.174a1,1,0,0,1,0,2Zm-9.221-12.256a2,2,0,1,1,2,2A2.006,2.006,0,0,1,21946.182,20713.379Zm9.221,1a1,1,0,0,1,0-2h28.174a1,1,0,0,1,0,2Zm-9.221-12.25a2,2,0,1,1,2,2A2.006,2.006,0,0,1,21946.182,20702.129Zm9.221,1a1,1,0,0,1,0-2h28.174a1,1,0,0,1,0,2Z" transform="translate(-21936 -20684)" fill="#1f31a5"/>
  </g>
</svg>
