<?xml version="1.0" encoding="UTF-8"?>
<svg id="_レイヤー_2" data-name="レイヤー 2" xmlns="http://www.w3.org/2000/svg" viewBox="0 0 1500 344">
  <defs>
    <style>
      .cls-1 {
        fill: none;
      }

      .cls-2 {
        fill: #919191;
      }

      .cls-3 {
        fill: #1f31a5;
      }

      .cls-4 {
        fill: #0024c5;
      }

      .cls-5 {
        fill: #e68013;
      }
    </style>
  </defs>
  <g id="_レイヤー_1-2" data-name="レイヤー 1">
    <g>
      <path class="cls-4" d="M1358.11,146h-38.85c-4.05-6.81-11.41-10.68-21.36-10.68-18.23,0-29.27,12.7-29.27,32.59,0,22.28,11.41,34.24,32.77,34.24,12.52,0,21.72-5.89,27.06-17.12h-36.27v-25.96h67.38v34.98c-7.73,18.96-27.8,39.95-61.67,39.95-39.77,0-65.91-27.25-65.91-66.09s25.96-65.91,65.72-65.91c32.77,0,55.23,16.94,60.39,44Z"/>
      <rect class="cls-1" width="280" height="344"/>
      <rect class="cls-1" x="360" y="102" width="832" height="132"/>
      <rect class="cls-1" x="360" y="102" width="406" height="132"/>
      <rect class="cls-1" x="778" y="102" width="414" height="132"/>
      <path d="M778,102h96v24.44h-32.88v107.56h-30.23v-107.56h-32.88v-24.44Z"/>
      <path d="M919.25,234c-29.25,0-50.3-19.62-50.3-51.19s20.69-51.19,50.3-51.19,49.59,19.26,49.59,49.59c0,2.85-.18,5.89-.54,8.92h-69.03c1.07,13.02,9.1,19.09,18.91,19.09,8.56,0,13.38-4.28,15.87-9.63h32.46c-4.82,19.44-22.48,34.43-47.27,34.43ZM899.45,173.17h38.17c0-10.88-8.56-17.12-18.73-17.12s-17.66,6.06-19.44,17.12Z"/>
      <path d="M1032.35,131.61c24.97,0,42.63,13.73,47.81,37.46h-32.46c-2.5-6.96-7.49-11.42-15.88-11.42-10.88,0-18.37,8.56-18.37,25.15s7.49,25.15,18.37,25.15c8.38,0,13.2-4.1,15.88-11.42h32.46c-5.17,23.01-22.83,37.46-47.81,37.46-29.25,0-49.95-19.62-49.95-51.19s20.69-51.19,49.95-51.19Z"/>
      <path d="M1153.47,131.61c-13.38,0-22.59,2.87-30.15,9.01h0v-38.63h-30.5v132h30.5v-55.83c0-13.56,7.49-21.05,19.26-21.05s19.09,7.49,19.09,21.05v55.83h30.32v-59.93c0-26.58-15.52-42.45-38.53-42.45Z"/>
      <path d="M390.3,102v108.45h39.7v23.55h-70V102h30.3Z"/>
      <path d="M510.85,130.55v54.42c0,10.2-8.68,18.49-19.34,18.49s-19.34-8.3-19.34-18.49v-54.42h-30.53v54.42c0,27.03,22.37,49.03,49.87,49.03,12.49,0,23.92-4.55,32.68-12.04l17.19,12.04v-103.45h-30.53Z"/>
      <g>
        <path d="M605.39,131.61c24.97,0,42.63,13.73,47.81,37.46h-32.46c-2.5-6.96-7.49-11.42-15.88-11.42-10.88,0-18.37,8.56-18.37,25.15s7.49,25.15,18.37,25.15c8.38,0,13.2-4.1,15.88-11.42h32.46c-5.17,23.01-22.83,37.46-47.81,37.46-29.25,0-49.95-19.62-49.95-51.19s20.69-51.19,49.95-51.19Z"/>
        <path d="M766,133.39h-30.5v2.39c-5.63-2.67-11.9-4.17-18.73-4.17-29.25,0-49.95,19.8-49.95,51.19s20.69,51.19,49.95,51.19c12.26,0,22.76-5.02,30.88-12.85l18.35,12.85v-100.61ZM716.32,207.96c-11.36,0-19.18-8.56-19.18-25.15s7.82-25.15,19.18-25.15,19.18,8.56,19.18,25.15-7.82,25.15-19.18,25.15Z"/>
      </g>
      <ellipse class="cls-2" cx="140" cy="336" rx="70" ry="8"/>
      <path class="cls-1" d="M105.31,90.62c-25.42,12.74-42.88,39.01-42.88,69.38,0,42.84,34.73,77.57,77.57,77.57s77.57-34.73,77.57-77.57c0-30.37-17.46-56.64-42.88-69.38l-34.69,69.38-34.69-69.38Z"/>
      <path class="cls-3" d="M0,160c0,77.32,62.68,140,140,140s140-62.68,140-140c0-54.81-31.5-102.25-77.38-125.24l-27.93,55.86c25.42,12.74,42.88,39.01,42.88,69.38,0,42.84-34.73,77.57-77.57,77.57s-77.57-34.73-77.57-77.57c0-30.37,17.46-56.64,42.88-69.38l-27.93-55.86C31.5,57.75,0,105.19,0,160Z"/>
      <path class="cls-5" d="M140.55.29c-.19-.19-.37-.29-.55-.29-.53,0-1.08.9-1.99,2.51l-.16.29c-.89,1.57-2.1,3.73-3.61,5.89-1.77,2.58-3.97,4.78-6.55,6.55-2.16,1.51-4.31,2.72-5.88,3.61l-.29.17c-1.61.91-2.52,1.46-2.51,1.99,0,.53.9,1.08,2.51,1.99l.29.16c1.57.89,3.73,2.1,5.89,3.61,2.58,1.77,4.78,3.97,6.55,6.55h0c1.51,2.16,2.72,4.31,3.61,5.88l.17.29c.91,1.61,1.46,2.52,1.99,2.51.53,0,1.08-.9,1.99-2.51l.16-.29c.89-1.57,2.1-3.73,3.61-5.89,1.77-2.58,3.97-4.78,6.55-6.55,2.16-1.51,4.31-2.72,5.88-3.61l.29-.17c1.61-.91,2.52-1.46,2.51-1.99,0-.53-.9-1.08-2.51-1.99l-.29-.16c-1.57-.89-3.73-2.1-5.89-3.61-2.58-1.77-4.78-3.97-6.55-6.55-1.51-2.16-2.72-4.31-3.61-5.89l-.17-.29c-.61-1.07-1.05-1.83-1.44-2.22Z"/>
      <path class="cls-3" d="M174.69,125.38l-34.69-69.38-34.69,69.38c10.44,5.23,22.22,8.19,34.69,8.19s24.25-2.96,34.69-8.19Z"/>
      <rect class="cls-1" width="280" height="300"/>
      <rect class="cls-1" x="1232" y="102" width="268" height="132"/>
      <path class="cls-3" d="M1358.11,146h-38.85c-4.05-6.81-11.41-10.68-21.36-10.68-18.23,0-29.27,12.7-29.27,32.59,0,22.28,11.41,34.24,32.77,34.24,12.52,0,21.72-5.89,27.06-17.12h-36.27v-25.96h67.38v34.98c-7.73,18.96-27.8,39.95-61.67,39.95-39.77,0-65.91-27.25-65.91-66.09s25.96-65.91,65.72-65.91c32.77,0,55.23,16.94,60.39,44Z"/>
      <polygon class="cls-3" points="1366 232 1409.26 232 1500 104 1456.74 104 1366 232"/>
      <polygon class="cls-3" points="1500 232 1456.74 232 1366 104 1409.26 104 1500 232"/>
    </g>
  </g>
</svg>